<mxfile host="app.diagrams.net" modified="2023-05-31T19:44:13.415Z" agent="Mozilla/5.0 (Windows NT 10.0; Win64; x64) AppleWebKit/537.36 (KHTML, like Gecko) Chrome/113.0.0.0 Safari/537.36" version="21.3.5" etag="nPvz0gkA9DEjMRLjpStX" type="device">
  <diagram id="je_50zB9GfmdjeN0JM1s" name="Page-1">
    <mxGraphModel dx="2946" dy="1429" grid="1" gridSize="10" guides="1" tooltips="1" connect="1" arrows="1" fold="1" page="0" pageScale="1" pageWidth="850" pageHeight="1100" math="0" shadow="0">
      <root>
        <mxCell id="0" />
        <mxCell id="1" parent="0" />
        <mxCell id="w4CTRpHOsR7Zc9_nfSjj-4" style="edgeStyle=none;rounded=0;orthogonalLoop=1;jettySize=auto;html=1;entryX=0;entryY=0.5;entryDx=0;entryDy=0;endArrow=open;startSize=14;endSize=14;sourcePerimeterSpacing=8;targetPerimeterSpacing=8;movable=1;resizable=1;rotatable=1;deletable=1;editable=1;locked=0;connectable=1;" edge="1" parent="1" source="w4CTRpHOsR7Zc9_nfSjj-1" target="w4CTRpHOsR7Zc9_nfSjj-2">
          <mxGeometry relative="1" as="geometry" />
        </mxCell>
        <mxCell id="w4CTRpHOsR7Zc9_nfSjj-6" style="edgeStyle=none;curved=1;rounded=1;orthogonalLoop=1;jettySize=auto;html=1;endArrow=open;startSize=14;endSize=14;sourcePerimeterSpacing=8;targetPerimeterSpacing=8;entryX=0.5;entryY=0;entryDx=0;entryDy=0;" edge="1" parent="1" source="w4CTRpHOsR7Zc9_nfSjj-1" target="w4CTRpHOsR7Zc9_nfSjj-5">
          <mxGeometry relative="1" as="geometry">
            <mxPoint x="-166.99999694824214" y="134.79998779296875" as="targetPoint" />
          </mxGeometry>
        </mxCell>
        <mxCell id="w4CTRpHOsR7Zc9_nfSjj-1" value="36" style="ellipse;whiteSpace=wrap;html=1;rounded=1;" vertex="1" parent="1">
          <mxGeometry x="-198.9999969482422" y="-40.000024414062494" width="80" height="80" as="geometry" />
        </mxCell>
        <mxCell id="w4CTRpHOsR7Zc9_nfSjj-49" style="edgeStyle=none;curved=1;rounded=0;orthogonalLoop=1;jettySize=auto;html=1;endArrow=open;startSize=14;endSize=14;sourcePerimeterSpacing=8;targetPerimeterSpacing=8;entryX=0;entryY=0.5;entryDx=0;entryDy=0;" edge="1" parent="1" source="w4CTRpHOsR7Zc9_nfSjj-2" target="w4CTRpHOsR7Zc9_nfSjj-27">
          <mxGeometry relative="1" as="geometry">
            <mxPoint x="-280" y="1240" as="targetPoint" />
            <Array as="points">
              <mxPoint x="-510" y="880" />
              <mxPoint x="-470" y="1270" />
            </Array>
          </mxGeometry>
        </mxCell>
        <mxCell id="w4CTRpHOsR7Zc9_nfSjj-2" value="37" style="ellipse;whiteSpace=wrap;html=1;rounded=1;" vertex="1" parent="1">
          <mxGeometry x="-350.00001220703126" y="-40.0000244140625" width="80" height="80" as="geometry" />
        </mxCell>
        <mxCell id="w4CTRpHOsR7Zc9_nfSjj-8" style="edgeStyle=none;curved=1;rounded=1;orthogonalLoop=1;jettySize=auto;html=1;endArrow=open;startSize=14;endSize=14;sourcePerimeterSpacing=8;targetPerimeterSpacing=8;" edge="1" parent="1" source="w4CTRpHOsR7Zc9_nfSjj-5" target="w4CTRpHOsR7Zc9_nfSjj-7">
          <mxGeometry relative="1" as="geometry" />
        </mxCell>
        <mxCell id="w4CTRpHOsR7Zc9_nfSjj-10" style="edgeStyle=none;curved=1;rounded=1;orthogonalLoop=1;jettySize=auto;html=1;entryX=0.5;entryY=0;entryDx=0;entryDy=0;endArrow=open;startSize=14;endSize=14;sourcePerimeterSpacing=8;targetPerimeterSpacing=8;" edge="1" parent="1" source="w4CTRpHOsR7Zc9_nfSjj-5" target="w4CTRpHOsR7Zc9_nfSjj-9">
          <mxGeometry relative="1" as="geometry" />
        </mxCell>
        <mxCell id="w4CTRpHOsR7Zc9_nfSjj-5" value="40" style="ellipse;whiteSpace=wrap;html=1;rounded=1;" vertex="1" parent="1">
          <mxGeometry x="-199.00001220703126" y="169.9999755859375" width="80" height="80" as="geometry" />
        </mxCell>
        <mxCell id="w4CTRpHOsR7Zc9_nfSjj-53" style="edgeStyle=none;curved=1;rounded=0;orthogonalLoop=1;jettySize=auto;html=1;exitX=0;exitY=1;exitDx=0;exitDy=0;endArrow=open;startSize=14;endSize=14;sourcePerimeterSpacing=8;targetPerimeterSpacing=8;" edge="1" parent="1" source="w4CTRpHOsR7Zc9_nfSjj-7" target="w4CTRpHOsR7Zc9_nfSjj-9">
          <mxGeometry relative="1" as="geometry" />
        </mxCell>
        <mxCell id="w4CTRpHOsR7Zc9_nfSjj-7" value="41" style="ellipse;whiteSpace=wrap;html=1;rounded=1;" vertex="1" parent="1">
          <mxGeometry x="-41.00001220703125" y="169.9999755859375" width="80" height="80" as="geometry" />
        </mxCell>
        <mxCell id="w4CTRpHOsR7Zc9_nfSjj-12" style="edgeStyle=none;curved=1;rounded=1;orthogonalLoop=1;jettySize=auto;html=1;entryX=0.5;entryY=0;entryDx=0;entryDy=0;endArrow=open;startSize=14;endSize=14;sourcePerimeterSpacing=8;targetPerimeterSpacing=8;" edge="1" parent="1" source="w4CTRpHOsR7Zc9_nfSjj-9" target="w4CTRpHOsR7Zc9_nfSjj-11">
          <mxGeometry relative="1" as="geometry" />
        </mxCell>
        <mxCell id="w4CTRpHOsR7Zc9_nfSjj-9" value="44" style="ellipse;whiteSpace=wrap;html=1;rounded=1;" vertex="1" parent="1">
          <mxGeometry x="-199.00001220703126" y="299.9999755859375" width="80" height="80" as="geometry" />
        </mxCell>
        <mxCell id="w4CTRpHOsR7Zc9_nfSjj-14" style="edgeStyle=none;curved=1;rounded=1;orthogonalLoop=1;jettySize=auto;html=1;exitX=1;exitY=0.5;exitDx=0;exitDy=0;entryX=0;entryY=0.5;entryDx=0;entryDy=0;endArrow=open;startSize=14;endSize=14;sourcePerimeterSpacing=8;targetPerimeterSpacing=8;" edge="1" parent="1" source="w4CTRpHOsR7Zc9_nfSjj-11" target="w4CTRpHOsR7Zc9_nfSjj-13">
          <mxGeometry relative="1" as="geometry" />
        </mxCell>
        <mxCell id="w4CTRpHOsR7Zc9_nfSjj-16" style="edgeStyle=none;curved=1;rounded=1;orthogonalLoop=1;jettySize=auto;html=1;entryX=0.5;entryY=0;entryDx=0;entryDy=0;endArrow=open;startSize=14;endSize=14;sourcePerimeterSpacing=8;targetPerimeterSpacing=8;" edge="1" parent="1" source="w4CTRpHOsR7Zc9_nfSjj-11" target="w4CTRpHOsR7Zc9_nfSjj-15">
          <mxGeometry relative="1" as="geometry" />
        </mxCell>
        <mxCell id="w4CTRpHOsR7Zc9_nfSjj-11" value="45" style="ellipse;whiteSpace=wrap;html=1;rounded=1;" vertex="1" parent="1">
          <mxGeometry x="-199.00001220703126" y="439.9999755859375" width="80" height="80" as="geometry" />
        </mxCell>
        <mxCell id="w4CTRpHOsR7Zc9_nfSjj-55" style="edgeStyle=none;curved=1;rounded=0;orthogonalLoop=1;jettySize=auto;html=1;exitX=1;exitY=0.5;exitDx=0;exitDy=0;entryX=0;entryY=0.5;entryDx=0;entryDy=0;endArrow=open;startSize=14;endSize=14;sourcePerimeterSpacing=8;targetPerimeterSpacing=8;" edge="1" parent="1" source="w4CTRpHOsR7Zc9_nfSjj-13" target="w4CTRpHOsR7Zc9_nfSjj-54">
          <mxGeometry relative="1" as="geometry" />
        </mxCell>
        <mxCell id="w4CTRpHOsR7Zc9_nfSjj-13" value="46" style="ellipse;whiteSpace=wrap;html=1;rounded=1;" vertex="1" parent="1">
          <mxGeometry x="-41.00001220703126" y="439.9999755859375" width="80" height="80" as="geometry" />
        </mxCell>
        <mxCell id="w4CTRpHOsR7Zc9_nfSjj-18" style="edgeStyle=none;curved=1;rounded=1;orthogonalLoop=1;jettySize=auto;html=1;entryX=0.5;entryY=0;entryDx=0;entryDy=0;endArrow=open;startSize=14;endSize=14;sourcePerimeterSpacing=8;targetPerimeterSpacing=8;" edge="1" parent="1" source="w4CTRpHOsR7Zc9_nfSjj-15" target="w4CTRpHOsR7Zc9_nfSjj-17">
          <mxGeometry relative="1" as="geometry" />
        </mxCell>
        <mxCell id="w4CTRpHOsR7Zc9_nfSjj-15" value="58,59,60" style="ellipse;whiteSpace=wrap;html=1;rounded=1;" vertex="1" parent="1">
          <mxGeometry x="-199.00001220703126" y="589.9999755859375" width="80" height="80" as="geometry" />
        </mxCell>
        <mxCell id="w4CTRpHOsR7Zc9_nfSjj-22" style="edgeStyle=none;curved=1;rounded=1;orthogonalLoop=1;jettySize=auto;html=1;entryX=0.5;entryY=0;entryDx=0;entryDy=0;endArrow=open;startSize=14;endSize=14;sourcePerimeterSpacing=8;targetPerimeterSpacing=8;" edge="1" parent="1" source="w4CTRpHOsR7Zc9_nfSjj-17" target="w4CTRpHOsR7Zc9_nfSjj-21">
          <mxGeometry relative="1" as="geometry" />
        </mxCell>
        <mxCell id="w4CTRpHOsR7Zc9_nfSjj-84" style="edgeStyle=none;curved=1;rounded=0;orthogonalLoop=1;jettySize=auto;html=1;entryX=1;entryY=0.5;entryDx=0;entryDy=0;endArrow=open;startSize=14;endSize=14;sourcePerimeterSpacing=8;targetPerimeterSpacing=8;" edge="1" parent="1" source="w4CTRpHOsR7Zc9_nfSjj-17" target="w4CTRpHOsR7Zc9_nfSjj-19">
          <mxGeometry relative="1" as="geometry" />
        </mxCell>
        <mxCell id="w4CTRpHOsR7Zc9_nfSjj-17" value="62" style="ellipse;whiteSpace=wrap;html=1;rounded=1;" vertex="1" parent="1">
          <mxGeometry x="-199.00001220703126" y="719.9999755859375" width="80" height="80" as="geometry" />
        </mxCell>
        <mxCell id="w4CTRpHOsR7Zc9_nfSjj-85" style="edgeStyle=none;curved=1;rounded=0;orthogonalLoop=1;jettySize=auto;html=1;entryX=0;entryY=0;entryDx=0;entryDy=0;endArrow=open;startSize=14;endSize=14;sourcePerimeterSpacing=8;targetPerimeterSpacing=8;" edge="1" parent="1" source="w4CTRpHOsR7Zc9_nfSjj-19" target="w4CTRpHOsR7Zc9_nfSjj-27">
          <mxGeometry relative="1" as="geometry">
            <Array as="points">
              <mxPoint x="-540" y="1090" />
            </Array>
          </mxGeometry>
        </mxCell>
        <mxCell id="w4CTRpHOsR7Zc9_nfSjj-19" value="63" style="ellipse;whiteSpace=wrap;html=1;rounded=1;" vertex="1" parent="1">
          <mxGeometry x="-370.00001220703126" y="719.9999755859375" width="80" height="80" as="geometry" />
        </mxCell>
        <mxCell id="w4CTRpHOsR7Zc9_nfSjj-63" style="edgeStyle=none;curved=1;rounded=0;orthogonalLoop=1;jettySize=auto;html=1;entryX=0.5;entryY=0;entryDx=0;entryDy=0;endArrow=open;startSize=14;endSize=14;sourcePerimeterSpacing=8;targetPerimeterSpacing=8;" edge="1" parent="1" source="w4CTRpHOsR7Zc9_nfSjj-21" target="w4CTRpHOsR7Zc9_nfSjj-23">
          <mxGeometry relative="1" as="geometry" />
        </mxCell>
        <mxCell id="w4CTRpHOsR7Zc9_nfSjj-21" value="65" style="ellipse;whiteSpace=wrap;html=1;rounded=1;" vertex="1" parent="1">
          <mxGeometry x="-199.00001220703126" y="859.9999755859375" width="80" height="80" as="geometry" />
        </mxCell>
        <mxCell id="w4CTRpHOsR7Zc9_nfSjj-51" style="edgeStyle=none;curved=1;rounded=0;orthogonalLoop=1;jettySize=auto;html=1;endArrow=open;startSize=14;endSize=14;sourcePerimeterSpacing=8;targetPerimeterSpacing=8;" edge="1" parent="1" source="w4CTRpHOsR7Zc9_nfSjj-23" target="w4CTRpHOsR7Zc9_nfSjj-50">
          <mxGeometry relative="1" as="geometry" />
        </mxCell>
        <mxCell id="w4CTRpHOsR7Zc9_nfSjj-64" style="edgeStyle=none;curved=1;rounded=0;orthogonalLoop=1;jettySize=auto;html=1;entryX=0;entryY=0.5;entryDx=0;entryDy=0;endArrow=open;startSize=14;endSize=14;sourcePerimeterSpacing=8;targetPerimeterSpacing=8;" edge="1" parent="1" source="w4CTRpHOsR7Zc9_nfSjj-23" target="w4CTRpHOsR7Zc9_nfSjj-25">
          <mxGeometry relative="1" as="geometry" />
        </mxCell>
        <mxCell id="w4CTRpHOsR7Zc9_nfSjj-23" value="66" style="ellipse;whiteSpace=wrap;html=1;rounded=1;" vertex="1" parent="1">
          <mxGeometry x="-199.00001220703126" y="999.9999755859375" width="80" height="80" as="geometry" />
        </mxCell>
        <mxCell id="w4CTRpHOsR7Zc9_nfSjj-90" style="edgeStyle=none;curved=1;rounded=0;orthogonalLoop=1;jettySize=auto;html=1;entryX=0;entryY=0.5;entryDx=0;entryDy=0;endArrow=open;startSize=14;endSize=14;sourcePerimeterSpacing=8;targetPerimeterSpacing=8;" edge="1" parent="1" source="w4CTRpHOsR7Zc9_nfSjj-25" target="w4CTRpHOsR7Zc9_nfSjj-89">
          <mxGeometry relative="1" as="geometry" />
        </mxCell>
        <mxCell id="w4CTRpHOsR7Zc9_nfSjj-25" value="67.1" style="ellipse;whiteSpace=wrap;html=1;rounded=1;" vertex="1" parent="1">
          <mxGeometry x="-41.00001220703125" y="999.9999755859375" width="80" height="80" as="geometry" />
        </mxCell>
        <mxCell id="w4CTRpHOsR7Zc9_nfSjj-27" value="75" style="ellipse;whiteSpace=wrap;html=1;rounded=1;" vertex="1" parent="1">
          <mxGeometry x="-199.00001220703126" y="1369.9999755859376" width="80" height="80" as="geometry" />
        </mxCell>
        <mxCell id="w4CTRpHOsR7Zc9_nfSjj-52" style="edgeStyle=none;curved=1;rounded=0;orthogonalLoop=1;jettySize=auto;html=1;endArrow=open;startSize=14;endSize=14;sourcePerimeterSpacing=8;targetPerimeterSpacing=8;" edge="1" parent="1" source="w4CTRpHOsR7Zc9_nfSjj-50" target="w4CTRpHOsR7Zc9_nfSjj-27">
          <mxGeometry relative="1" as="geometry" />
        </mxCell>
        <mxCell id="w4CTRpHOsR7Zc9_nfSjj-50" value="74" style="ellipse;whiteSpace=wrap;html=1;" vertex="1" parent="1">
          <mxGeometry x="-199" y="1120" width="80" height="80" as="geometry" />
        </mxCell>
        <mxCell id="w4CTRpHOsR7Zc9_nfSjj-60" style="edgeStyle=none;curved=1;rounded=0;orthogonalLoop=1;jettySize=auto;html=1;entryX=0;entryY=0.5;entryDx=0;entryDy=0;endArrow=open;startSize=14;endSize=14;sourcePerimeterSpacing=8;targetPerimeterSpacing=8;" edge="1" parent="1" source="w4CTRpHOsR7Zc9_nfSjj-54" target="w4CTRpHOsR7Zc9_nfSjj-59">
          <mxGeometry relative="1" as="geometry" />
        </mxCell>
        <mxCell id="w4CTRpHOsR7Zc9_nfSjj-54" value="47.1" style="ellipse;whiteSpace=wrap;html=1;" vertex="1" parent="1">
          <mxGeometry x="130" y="440" width="80" height="80" as="geometry" />
        </mxCell>
        <mxCell id="w4CTRpHOsR7Zc9_nfSjj-66" style="edgeStyle=none;curved=1;rounded=0;orthogonalLoop=1;jettySize=auto;html=1;entryX=0.5;entryY=0;entryDx=0;entryDy=0;endArrow=open;startSize=14;endSize=14;sourcePerimeterSpacing=8;targetPerimeterSpacing=8;" edge="1" parent="1" source="w4CTRpHOsR7Zc9_nfSjj-59" target="w4CTRpHOsR7Zc9_nfSjj-65">
          <mxGeometry relative="1" as="geometry" />
        </mxCell>
        <mxCell id="w4CTRpHOsR7Zc9_nfSjj-83" style="edgeStyle=none;curved=1;rounded=0;orthogonalLoop=1;jettySize=auto;html=1;exitX=0;exitY=1;exitDx=0;exitDy=0;entryX=1;entryY=0.5;entryDx=0;entryDy=0;endArrow=open;startSize=14;endSize=14;sourcePerimeterSpacing=8;targetPerimeterSpacing=8;" edge="1" parent="1" source="w4CTRpHOsR7Zc9_nfSjj-59" target="w4CTRpHOsR7Zc9_nfSjj-15">
          <mxGeometry relative="1" as="geometry" />
        </mxCell>
        <mxCell id="w4CTRpHOsR7Zc9_nfSjj-59" value="47.2" style="ellipse;whiteSpace=wrap;html=1;" vertex="1" parent="1">
          <mxGeometry x="470" y="440" width="80" height="80" as="geometry" />
        </mxCell>
        <mxCell id="w4CTRpHOsR7Zc9_nfSjj-70" style="edgeStyle=none;curved=1;rounded=0;orthogonalLoop=1;jettySize=auto;html=1;entryX=0.5;entryY=0;entryDx=0;entryDy=0;endArrow=open;startSize=14;endSize=14;sourcePerimeterSpacing=8;targetPerimeterSpacing=8;" edge="1" parent="1" source="w4CTRpHOsR7Zc9_nfSjj-65" target="w4CTRpHOsR7Zc9_nfSjj-67">
          <mxGeometry relative="1" as="geometry" />
        </mxCell>
        <mxCell id="w4CTRpHOsR7Zc9_nfSjj-65" value="48" style="ellipse;whiteSpace=wrap;html=1;" vertex="1" parent="1">
          <mxGeometry x="470" y="600" width="80" height="80" as="geometry" />
        </mxCell>
        <mxCell id="w4CTRpHOsR7Zc9_nfSjj-71" style="edgeStyle=none;curved=1;rounded=0;orthogonalLoop=1;jettySize=auto;html=1;entryX=0;entryY=0.5;entryDx=0;entryDy=0;endArrow=open;startSize=14;endSize=14;sourcePerimeterSpacing=8;targetPerimeterSpacing=8;" edge="1" parent="1" source="w4CTRpHOsR7Zc9_nfSjj-67" target="w4CTRpHOsR7Zc9_nfSjj-69">
          <mxGeometry relative="1" as="geometry" />
        </mxCell>
        <mxCell id="w4CTRpHOsR7Zc9_nfSjj-73" style="edgeStyle=none;curved=1;rounded=0;orthogonalLoop=1;jettySize=auto;html=1;entryX=0.5;entryY=0;entryDx=0;entryDy=0;endArrow=open;startSize=14;endSize=14;sourcePerimeterSpacing=8;targetPerimeterSpacing=8;" edge="1" parent="1" source="w4CTRpHOsR7Zc9_nfSjj-67" target="w4CTRpHOsR7Zc9_nfSjj-72">
          <mxGeometry relative="1" as="geometry" />
        </mxCell>
        <mxCell id="w4CTRpHOsR7Zc9_nfSjj-67" value="49" style="ellipse;whiteSpace=wrap;html=1;" vertex="1" parent="1">
          <mxGeometry x="470" y="720" width="80" height="80" as="geometry" />
        </mxCell>
        <mxCell id="w4CTRpHOsR7Zc9_nfSjj-74" style="edgeStyle=none;curved=1;rounded=0;orthogonalLoop=1;jettySize=auto;html=1;exitX=0;exitY=1;exitDx=0;exitDy=0;endArrow=open;startSize=14;endSize=14;sourcePerimeterSpacing=8;targetPerimeterSpacing=8;" edge="1" parent="1" source="w4CTRpHOsR7Zc9_nfSjj-69" target="w4CTRpHOsR7Zc9_nfSjj-72">
          <mxGeometry relative="1" as="geometry" />
        </mxCell>
        <mxCell id="w4CTRpHOsR7Zc9_nfSjj-69" value="50" style="ellipse;whiteSpace=wrap;html=1;" vertex="1" parent="1">
          <mxGeometry x="640" y="720" width="80" height="80" as="geometry" />
        </mxCell>
        <mxCell id="w4CTRpHOsR7Zc9_nfSjj-76" style="edgeStyle=none;curved=1;rounded=0;orthogonalLoop=1;jettySize=auto;html=1;entryX=0;entryY=0.5;entryDx=0;entryDy=0;endArrow=open;startSize=14;endSize=14;sourcePerimeterSpacing=8;targetPerimeterSpacing=8;" edge="1" parent="1" source="w4CTRpHOsR7Zc9_nfSjj-72" target="w4CTRpHOsR7Zc9_nfSjj-75">
          <mxGeometry relative="1" as="geometry" />
        </mxCell>
        <mxCell id="w4CTRpHOsR7Zc9_nfSjj-78" style="edgeStyle=none;curved=1;rounded=0;orthogonalLoop=1;jettySize=auto;html=1;entryX=0.5;entryY=0;entryDx=0;entryDy=0;endArrow=open;startSize=14;endSize=14;sourcePerimeterSpacing=8;targetPerimeterSpacing=8;" edge="1" parent="1" source="w4CTRpHOsR7Zc9_nfSjj-72" target="w4CTRpHOsR7Zc9_nfSjj-77">
          <mxGeometry relative="1" as="geometry" />
        </mxCell>
        <mxCell id="w4CTRpHOsR7Zc9_nfSjj-72" value="52" style="ellipse;whiteSpace=wrap;html=1;" vertex="1" parent="1">
          <mxGeometry x="470" y="850" width="80" height="80" as="geometry" />
        </mxCell>
        <mxCell id="w4CTRpHOsR7Zc9_nfSjj-79" style="edgeStyle=none;curved=1;rounded=0;orthogonalLoop=1;jettySize=auto;html=1;exitX=0;exitY=1;exitDx=0;exitDy=0;entryX=1;entryY=0;entryDx=0;entryDy=0;endArrow=open;startSize=14;endSize=14;sourcePerimeterSpacing=8;targetPerimeterSpacing=8;" edge="1" parent="1" source="w4CTRpHOsR7Zc9_nfSjj-75" target="w4CTRpHOsR7Zc9_nfSjj-77">
          <mxGeometry relative="1" as="geometry" />
        </mxCell>
        <mxCell id="w4CTRpHOsR7Zc9_nfSjj-75" value="53" style="ellipse;whiteSpace=wrap;html=1;" vertex="1" parent="1">
          <mxGeometry x="640" y="850" width="80" height="80" as="geometry" />
        </mxCell>
        <mxCell id="w4CTRpHOsR7Zc9_nfSjj-81" style="edgeStyle=none;curved=1;rounded=0;orthogonalLoop=1;jettySize=auto;html=1;entryX=0.5;entryY=1;entryDx=0;entryDy=0;endArrow=open;startSize=14;endSize=14;sourcePerimeterSpacing=8;targetPerimeterSpacing=8;" edge="1" parent="1" source="w4CTRpHOsR7Zc9_nfSjj-77" target="w4CTRpHOsR7Zc9_nfSjj-80">
          <mxGeometry relative="1" as="geometry">
            <Array as="points">
              <mxPoint x="860" y="1040" />
            </Array>
          </mxGeometry>
        </mxCell>
        <mxCell id="w4CTRpHOsR7Zc9_nfSjj-77" value="54" style="ellipse;whiteSpace=wrap;html=1;" vertex="1" parent="1">
          <mxGeometry x="470" y="990" width="80" height="80" as="geometry" />
        </mxCell>
        <mxCell id="w4CTRpHOsR7Zc9_nfSjj-82" style="edgeStyle=none;curved=1;rounded=0;orthogonalLoop=1;jettySize=auto;html=1;entryX=1;entryY=0.5;entryDx=0;entryDy=0;endArrow=open;startSize=14;endSize=14;sourcePerimeterSpacing=8;targetPerimeterSpacing=8;" edge="1" parent="1" source="w4CTRpHOsR7Zc9_nfSjj-80" target="w4CTRpHOsR7Zc9_nfSjj-59">
          <mxGeometry relative="1" as="geometry" />
        </mxCell>
        <mxCell id="w4CTRpHOsR7Zc9_nfSjj-80" value="47.3" style="ellipse;whiteSpace=wrap;html=1;" vertex="1" parent="1">
          <mxGeometry x="720" y="440" width="80" height="80" as="geometry" />
        </mxCell>
        <mxCell id="w4CTRpHOsR7Zc9_nfSjj-92" style="edgeStyle=none;curved=1;rounded=0;orthogonalLoop=1;jettySize=auto;html=1;exitX=0.5;exitY=1;exitDx=0;exitDy=0;entryX=0.5;entryY=0;entryDx=0;entryDy=0;endArrow=open;startSize=14;endSize=14;sourcePerimeterSpacing=8;targetPerimeterSpacing=8;" edge="1" parent="1" source="w4CTRpHOsR7Zc9_nfSjj-89" target="w4CTRpHOsR7Zc9_nfSjj-91">
          <mxGeometry relative="1" as="geometry" />
        </mxCell>
        <mxCell id="w4CTRpHOsR7Zc9_nfSjj-103" style="edgeStyle=none;curved=1;rounded=0;orthogonalLoop=1;jettySize=auto;html=1;exitX=0;exitY=1;exitDx=0;exitDy=0;endArrow=open;startSize=14;endSize=14;sourcePerimeterSpacing=8;targetPerimeterSpacing=8;" edge="1" parent="1" source="w4CTRpHOsR7Zc9_nfSjj-89" target="w4CTRpHOsR7Zc9_nfSjj-50">
          <mxGeometry relative="1" as="geometry" />
        </mxCell>
        <mxCell id="w4CTRpHOsR7Zc9_nfSjj-89" value="67.2" style="ellipse;whiteSpace=wrap;html=1;" vertex="1" parent="1">
          <mxGeometry x="120" y="1000" width="80" height="80" as="geometry" />
        </mxCell>
        <mxCell id="w4CTRpHOsR7Zc9_nfSjj-96" style="edgeStyle=none;curved=1;rounded=0;orthogonalLoop=1;jettySize=auto;html=1;exitX=0.5;exitY=1;exitDx=0;exitDy=0;endArrow=open;startSize=14;endSize=14;sourcePerimeterSpacing=8;targetPerimeterSpacing=8;" edge="1" parent="1" source="w4CTRpHOsR7Zc9_nfSjj-91" target="w4CTRpHOsR7Zc9_nfSjj-95">
          <mxGeometry relative="1" as="geometry" />
        </mxCell>
        <mxCell id="w4CTRpHOsR7Zc9_nfSjj-101" style="edgeStyle=none;curved=1;rounded=0;orthogonalLoop=1;jettySize=auto;html=1;entryX=1;entryY=0.5;entryDx=0;entryDy=0;endArrow=open;startSize=14;endSize=14;sourcePerimeterSpacing=8;targetPerimeterSpacing=8;" edge="1" parent="1" source="w4CTRpHOsR7Zc9_nfSjj-91" target="w4CTRpHOsR7Zc9_nfSjj-93">
          <mxGeometry relative="1" as="geometry" />
        </mxCell>
        <mxCell id="w4CTRpHOsR7Zc9_nfSjj-91" value="68" style="ellipse;whiteSpace=wrap;html=1;" vertex="1" parent="1">
          <mxGeometry x="120" y="1120" width="80" height="80" as="geometry" />
        </mxCell>
        <mxCell id="w4CTRpHOsR7Zc9_nfSjj-102" style="edgeStyle=none;curved=1;rounded=0;orthogonalLoop=1;jettySize=auto;html=1;entryX=0.988;entryY=0.624;entryDx=0;entryDy=0;entryPerimeter=0;endArrow=open;startSize=14;endSize=14;sourcePerimeterSpacing=8;targetPerimeterSpacing=8;" edge="1" parent="1" source="w4CTRpHOsR7Zc9_nfSjj-93" target="w4CTRpHOsR7Zc9_nfSjj-27">
          <mxGeometry relative="1" as="geometry">
            <Array as="points">
              <mxPoint x="30" y="1400" />
            </Array>
          </mxGeometry>
        </mxCell>
        <mxCell id="w4CTRpHOsR7Zc9_nfSjj-93" value="69" style="ellipse;whiteSpace=wrap;html=1;" vertex="1" parent="1">
          <mxGeometry x="-20" y="1120" width="80" height="80" as="geometry" />
        </mxCell>
        <mxCell id="w4CTRpHOsR7Zc9_nfSjj-99" style="edgeStyle=none;curved=1;rounded=0;orthogonalLoop=1;jettySize=auto;html=1;endArrow=open;startSize=14;endSize=14;sourcePerimeterSpacing=8;targetPerimeterSpacing=8;entryX=1;entryY=0.5;entryDx=0;entryDy=0;" edge="1" parent="1" source="w4CTRpHOsR7Zc9_nfSjj-95" target="w4CTRpHOsR7Zc9_nfSjj-98">
          <mxGeometry relative="1" as="geometry">
            <mxPoint x="450" y="1290" as="targetPoint" />
            <Array as="points">
              <mxPoint x="450" y="1310" />
            </Array>
          </mxGeometry>
        </mxCell>
        <mxCell id="w4CTRpHOsR7Zc9_nfSjj-95" value="70" style="ellipse;whiteSpace=wrap;html=1;" vertex="1" parent="1">
          <mxGeometry x="120" y="1260" width="80" height="80" as="geometry" />
        </mxCell>
        <mxCell id="w4CTRpHOsR7Zc9_nfSjj-100" style="edgeStyle=none;curved=1;rounded=0;orthogonalLoop=1;jettySize=auto;html=1;entryX=1;entryY=0.5;entryDx=0;entryDy=0;endArrow=open;startSize=14;endSize=14;sourcePerimeterSpacing=8;targetPerimeterSpacing=8;" edge="1" parent="1" source="w4CTRpHOsR7Zc9_nfSjj-98" target="w4CTRpHOsR7Zc9_nfSjj-89">
          <mxGeometry relative="1" as="geometry" />
        </mxCell>
        <mxCell id="w4CTRpHOsR7Zc9_nfSjj-98" value="67.3" style="ellipse;whiteSpace=wrap;html=1;" vertex="1" parent="1">
          <mxGeometry x="320" y="1000" width="80" height="80" as="geometry" />
        </mxCell>
        <mxCell id="w4CTRpHOsR7Zc9_nfSjj-105" style="edgeStyle=none;curved=1;rounded=0;orthogonalLoop=1;jettySize=auto;html=1;entryX=0.5;entryY=0;entryDx=0;entryDy=0;endArrow=open;startSize=14;endSize=14;sourcePerimeterSpacing=8;targetPerimeterSpacing=8;" edge="1" parent="1" source="w4CTRpHOsR7Zc9_nfSjj-104" target="w4CTRpHOsR7Zc9_nfSjj-1">
          <mxGeometry relative="1" as="geometry" />
        </mxCell>
        <mxCell id="w4CTRpHOsR7Zc9_nfSjj-104" value="35" style="ellipse;whiteSpace=wrap;html=1;" vertex="1" parent="1">
          <mxGeometry x="-199" y="-240" width="80" height="80" as="geometry" />
        </mxCell>
      </root>
    </mxGraphModel>
  </diagram>
</mxfile>
